<svg width="1440" height="1024" viewBox="0 0 1440 1024" fill="none" xmlns="http://www.w3.org/2000/svg">
<rect width="1440" height="1024" fill="white"/>
<path d="M1085.87 96.5H1087.07V105.215L1087.49 105.92H1087.87L1088.89 104.855V100.85H1090.1V104.405L1091.14 105.92H1091.5L1091.9 105.47V96.5H1093.12V105.755L1091.9 107H1090.55L1089.62 105.62L1088.32 107H1087.07L1085.87 105.2V96.5ZM1095.18 96.5H1101.81V97.595H1099.09V105.905H1101.81V107H1095.18V105.905H1097.89V97.595H1095.18V96.5ZM1104.17 96.5H1109.6L1110.8 98.3V100.73L1109.6 101.945H1105.37V107H1104.17V96.5ZM1105.39 97.58V101.585L1106.6 100.88H1109.14L1109.6 100.4V98.465L1109.02 97.58H1105.39ZM1114.46 99.035H1118.6L1119.38 100.19L1118.64 100.97L1118.04 100.085H1114.98L1114.52 100.49V101.63L1115.09 102.44H1118.63L1119.65 103.97V105.875L1118.63 107H1113.92L1113.32 106.07L1114.05 105.305L1114.46 105.92H1118.13L1118.45 105.56V104.15L1118.01 103.535H1114.46L1113.32 101.81V100.145L1114.46 99.035Z" fill="black"/>
<path d="M69.64 48.5H73.855L74.845 50L74.08 50.81L73.285 49.58H70.09L69.625 50.075V57.05L70.21 57.92H73.375L74.275 57.02L74.875 57.92L73.855 59H69.625L68.425 57.2V49.745L69.64 48.5ZM78.2891 50.705H82.9991L83.9441 52.1V59H82.6841V58.235L81.4241 59H78.2891L77.0291 57.125V56.525L79.3691 54.095H82.6841V51.815H78.2891V50.705ZM78.2891 56.975L78.8741 57.86H82.6841V55.235H79.8641L78.2891 56.855V56.975ZM87.4633 51.035H91.6033L92.3833 52.19L91.6483 52.97L91.0483 52.085H87.9883L87.5233 52.49V53.63L88.0933 54.44H91.6333L92.6533 55.97V57.875L91.6333 59H86.9233L86.3233 58.07L87.0583 57.305L87.4633 57.92H91.1383L91.4533 57.56V56.15L91.0183 55.535H87.4633L86.3233 53.81V52.145L87.4633 51.035ZM95.1674 47.765H96.3674V51.755L97.5674 51.035H100.567L101.812 52.805V59H100.597V52.955L100.027 52.115H96.8624L96.3674 52.58V59H95.1674V47.765ZM103.862 51.035H105.062V51.755L106.262 51.035H106.892L107.582 52.07L109.307 51.035H109.892L111.107 52.82V59H109.892V52.97L109.322 52.115H108.557L108.107 52.61V54.845H106.892V52.97L106.322 52.115H105.527L105.062 52.61V59H103.862V51.035ZM114.341 51.035H118.541L119.786 52.82L117.311 55.37H114.341V57.05L114.926 57.92H118.106L118.946 57.095L119.606 57.92L118.556 59H114.356L113.141 57.2V52.28L114.341 51.035ZM114.341 52.595V54.29H116.861L118.376 52.7L117.986 52.115H114.821L114.341 52.595ZM122.075 51.035H122.735L124.16 51.89L124.985 51.035H128.075L128.855 52.175L127.955 52.79L127.505 52.115H125.45L124.79 52.82V57.92H126.905V59H122.075V57.92H123.59V52.97L123.005 52.115H122.075V51.035ZM132.329 51.035H136.529L137.774 52.82L135.299 55.37H132.329V57.05L132.914 57.92H136.094L136.934 57.095L137.594 57.92L136.544 59H132.344L131.129 57.2V52.28L132.329 51.035ZM132.329 52.595V54.29H134.849L136.364 52.7L135.974 52.115H132.809L132.329 52.595ZM149.282 48.5H155.057L155.762 49.52V50.9L153.917 52.85H154.517L155.912 54.905V58.265L154.712 59H149.282V48.5ZM150.482 49.58V52.85H152.402L154.562 50.615V49.58H150.482ZM150.482 53.945V57.92H154.712V55.025L153.947 53.945H150.482ZM158.111 47.78H160.361L161.576 48.5V57.065L162.146 57.92H164.756L164.741 59H161.576L160.361 57.215V48.86H158.111V47.78ZM168.231 50.705H172.941L173.886 52.1V59H172.626V58.235L171.366 59H168.231L166.971 57.125V56.525L169.311 54.095H172.626V51.815H168.231V50.705ZM168.231 56.975L168.816 57.86H172.626V55.235H169.806L168.231 56.855V56.975ZM176.115 51.035H177.315V51.755L178.53 51.035H181.545L182.76 52.805V59H181.545V52.955L180.975 52.115H177.78L177.315 52.595V59H176.115V51.035ZM186.324 51.035H190.539L191.604 52.625L190.839 53.42L189.954 52.115H186.789L186.324 52.595V57.05L186.909 57.92H190.074L190.959 57.005L191.574 57.92L190.539 59H186.339L185.124 57.2V52.28L186.324 51.035ZM194.103 47.765H195.303V51.755L196.503 51.035H199.503L200.748 52.805V59H199.533V52.955L198.963 52.115H195.798L195.303 52.58V59H194.103V47.765ZM204.282 51.035H208.482L209.727 52.82L207.252 55.37H204.282V57.05L204.867 57.92H208.047L208.887 57.095L209.547 57.92L208.497 59H204.297L203.082 57.2V52.28L204.282 51.035ZM204.282 52.595V54.29H206.802L208.317 52.7L207.927 52.115H204.762L204.282 52.595ZM223.53 48.5H227.7V59H226.5V54.2H222.3V59H221.1V51.005L223.53 48.5ZM222.3 51.29V53.12H226.5V49.58H223.965L222.3 51.29ZM230.065 47.78H232.315L233.53 48.5V57.065L234.1 57.92H236.71L236.695 59H233.53L232.315 57.215V48.86H230.065V47.78ZM239.674 50.75H241.789L242.989 52.55V57.92H245.704V59H239.074V57.92H241.789V52.7L241.219 51.845H239.674V50.75ZM241.639 48.785H243.139V47.285H241.639V48.785ZM248.068 51.035H249.268V51.755L250.483 51.035H253.498L254.713 52.805V59H253.498V52.955L252.928 52.115H249.733L249.268 52.595V59H248.068V51.035Z" fill="black"/>
<path d="M182.357 679.5H186.557L187.562 681L186.797 681.78L185.987 680.58H182.807L182.357 681.06V688.11L182.882 688.92H186.587V684.945H184.472V683.865H187.187L187.802 684.795V690H182.312L181.157 688.275V680.76L182.357 679.5ZM190.901 681.75H193.016L194.216 683.55V688.92H196.931V690H190.301V688.92H193.016V683.7L192.446 682.845H190.901V681.75ZM192.866 679.785H194.366V678.285H192.866V679.785ZM200.796 678.78H201.996V682.02H204.426V683.115H201.996V688.05L202.581 688.905H204.096L204.996 688.005L205.611 688.905L204.591 690H201.996L200.796 688.23V683.115H199.611V682.02H200.796V678.78ZM208.275 679.5H209.475V684.555L210.66 683.85H212.505L213.72 684.555V679.5H214.935V690H213.72V685.77L213.15 684.945H209.925L209.475 685.395V690H208.275V679.5ZM222.699 682.035H223.914V690H222.729V689.265L221.499 690H218.499L217.284 688.2V682.035H218.484V688.05L219.069 688.905H222.264L222.699 688.44V682.035ZM226.293 678.78H227.493V682.755L228.693 682.02H231.723L232.953 683.85V688.74L231.723 690H228.723L227.493 689.28V690H226.293V678.78ZM227.493 683.61V688.905H231.288L231.738 688.425V683.985L231.153 683.115H227.973L227.493 683.61Z" fill="black"/>
<path d="M168.895 466.22H172.435L174.955 468.605V473.66L173.86 474.365H169.525L168.31 472.715V471.02L169.9 469.415H171.625L172.84 470.51V473.33H173.74V468.965L171.865 467.3H169.375L167.26 469.325V474.35L168.925 476.48H172.84V477.56H168.355L166.045 474.5V469.01L168.895 466.22ZM169.45 472.475L170.035 473.33H171.55V470.495H170.245L169.45 471.335V472.475ZM177.394 468.035H181.609L182.674 469.625L181.909 470.42L181.024 469.115H177.859L177.394 469.595V474.05L177.979 474.92H181.144L182.029 474.005L182.644 474.92L181.609 476H177.409L176.194 474.2V469.28L177.394 468.035ZM186.283 467.705H190.993L191.938 469.1V476H190.678V475.235L189.418 476H186.283L185.023 474.125V473.525L187.363 471.095H190.678V468.815H186.283V467.705ZM186.283 473.975L186.868 474.86H190.678V472.235H187.858L186.283 473.855V473.975ZM195.457 468.035H199.597L200.377 469.19L199.642 469.97L199.042 469.085H195.982L195.517 469.49V470.63L196.087 471.44H199.627L200.647 472.97V474.875L199.627 476H194.917L194.317 475.07L195.052 474.305L195.457 474.92H199.132L199.447 474.56V473.15L199.012 472.535H195.457L194.317 470.81V469.145L195.457 468.035ZM203.162 464.765H204.362V468.755L205.562 468.035H208.562L209.807 469.805V476H208.592V469.955L208.022 469.115H204.857L204.362 469.58V476H203.162V464.765ZM211.856 468.035H213.056V468.755L214.256 468.035H214.886L215.576 469.07L217.301 468.035H217.886L219.101 469.82V476H217.886V469.97L217.316 469.115H216.551L216.101 469.61V471.845H214.886V469.97L214.316 469.115H213.521L213.056 469.61V476H211.856V468.035ZM226.565 468.035H227.78V476H226.595V475.265L225.365 476H222.365L221.15 474.2V468.035H222.35V474.05L222.935 474.905H226.13L226.565 474.44V468.035ZM230.069 468.035H230.729L232.154 468.89L232.979 468.035H236.069L236.849 469.175L235.949 469.79L235.499 469.115H233.444L232.784 469.82V474.92H234.899V476H230.069V474.92H231.584V469.97L230.999 469.115H230.069V468.035ZM239.153 464.78H240.353V468.755L241.553 468.02H244.583L245.813 469.85V474.74L244.583 476H241.583L240.353 475.28V476H239.153V464.78ZM240.353 469.61V474.905H244.148L244.598 474.425V469.985L244.013 469.115H240.833L240.353 469.61Z" fill="black"/>
<path d="M857.895 466.22H861.435L863.955 468.605V473.66L862.86 474.365H858.525L857.31 472.715V471.02L858.9 469.415H860.625L861.84 470.51V473.33H862.74V468.965L860.865 467.3H858.375L856.26 469.325V474.35L857.925 476.48H861.84V477.56H857.355L855.045 474.5V469.01L857.895 466.22ZM858.45 472.475L859.035 473.33H860.55V470.495H859.245L858.45 471.335V472.475ZM866.394 468.035H870.609L871.674 469.625L870.909 470.42L870.024 469.115H866.859L866.394 469.595V474.05L866.979 474.92H870.144L871.029 474.005L871.644 474.92L870.609 476H866.409L865.194 474.2V469.28L866.394 468.035ZM875.283 467.705H879.993L880.938 469.1V476H879.678V475.235L878.418 476H875.283L874.023 474.125V473.525L876.363 471.095H879.678V468.815H875.283V467.705ZM875.283 473.975L875.868 474.86H879.678V472.235H876.858L875.283 473.855V473.975ZM884.457 468.035H888.597L889.377 469.19L888.642 469.97L888.042 469.085H884.982L884.517 469.49V470.63L885.087 471.44H888.627L889.647 472.97V474.875L888.627 476H883.917L883.317 475.07L884.052 474.305L884.457 474.92H888.132L888.447 474.56V473.15L888.012 472.535H884.457L883.317 470.81V469.145L884.457 468.035ZM891.862 468.035H893.062V468.755L894.262 468.035H894.892L895.582 469.07L897.307 468.035H897.892L899.107 469.82V476H897.892V469.97L897.322 469.115H896.557L896.107 469.61V471.845H894.892V469.97L894.322 469.115H893.527L893.062 469.61V476H891.862V468.035ZM906.571 468.035H907.786V476H906.601V475.265L905.371 476H902.371L901.156 474.2V468.035H902.356V474.05L902.941 474.905H906.136L906.571 474.44V468.035ZM910.075 468.035H910.735L912.16 468.89L912.985 468.035H916.075L916.855 469.175L915.955 469.79L915.505 469.115H913.45L912.79 469.82V474.92H914.905V476H910.075V474.92H911.59V469.97L911.005 469.115H910.075V468.035ZM919.159 464.78H920.359V468.755L921.559 468.02H924.589L925.819 469.85V474.74L924.589 476H921.589L920.359 475.28V476H919.159V464.78ZM920.359 469.61V474.905H924.154L924.604 474.425V469.985L924.019 469.115H920.839L920.359 469.61Z" fill="black"/>
<path d="M1182.9 466.22H1186.44L1188.96 468.605V473.66L1187.86 474.365H1183.53L1182.31 472.715V471.02L1183.9 469.415H1185.63L1186.84 470.51V473.33H1187.74V468.965L1185.87 467.3H1183.38L1181.26 469.325V474.35L1182.93 476.48H1186.84V477.56H1182.36L1180.05 474.5V469.01L1182.9 466.22ZM1183.45 472.475L1184.04 473.33H1185.55V470.495H1184.25L1183.45 471.335V472.475ZM1191.47 468.035H1195.61L1196.39 469.19L1195.65 469.97L1195.05 469.085H1191.99L1191.53 469.49V470.63L1192.1 471.44H1195.64L1196.66 472.97V474.875L1195.64 476H1190.93L1190.33 475.07L1191.06 474.305L1191.47 474.92H1195.14L1195.46 474.56V473.15L1195.02 472.535H1191.47L1190.33 470.81V469.145L1191.47 468.035ZM1199.17 464.765H1200.37V468.755L1201.57 468.035H1204.57L1205.82 469.805V476H1204.6V469.955L1204.03 469.115H1200.87L1200.37 469.58V476H1199.17V464.765ZM1209.35 468.035H1213.55L1214.8 469.82L1212.32 472.37H1209.35V474.05L1209.94 474.92H1213.12L1213.96 474.095L1214.62 474.92L1213.57 476H1209.37L1208.15 474.2V469.28L1209.35 468.035ZM1209.35 469.595V471.29H1211.87L1213.39 469.7L1213 469.115H1209.83L1209.35 469.595ZM1223.51 468.035H1224.71V473.84L1222.62 476H1221.53L1220.63 474.635L1219.29 476H1218.23L1216.26 473.09V468.035H1217.46V472.94L1218.78 474.905H1218.86L1219.88 473.84V468.035H1221.09V473.405L1222.11 474.905H1222.16L1223.51 473.525V468.035ZM1226.16 464.765H1227.36V468.755L1228.56 468.035H1231.56L1232.8 469.805V476H1231.59V469.955L1231.02 469.115H1227.85L1227.36 469.58V476H1226.16V464.765ZM1236.36 468.035H1240.61L1241.81 469.835V474.755L1240.61 476H1236.38L1235.16 474.2V469.28L1236.36 468.035ZM1236.35 474.05L1236.95 474.92H1240.13L1240.58 474.44V469.97L1240.01 469.115H1236.81L1236.35 469.61V474.05ZM1246.71 465.5H1250.04L1250.77 466.535L1250.01 467.315L1249.51 466.58H1247.2L1246.54 467.255V469.85H1249.51V470.93H1246.54V476H1245.34V470.93H1244.14V469.85H1245.34V466.91L1246.71 465.5ZM1253.74 467.75H1255.85L1257.05 469.55V474.92H1259.77V476H1253.14V474.92H1255.85V469.7L1255.28 468.845H1253.74V467.75ZM1255.7 465.785H1257.2V464.285H1255.7V465.785ZM1262.12 464.78H1264.37L1265.58 465.5V474.065L1266.15 474.92H1268.76L1268.75 476H1265.58L1264.37 474.215V465.86H1262.12V464.78ZM1270.83 468.035H1272.03V468.755L1273.23 468.035H1273.86L1274.55 469.07L1276.27 468.035H1276.86L1278.07 469.82V476H1276.86V469.97L1276.29 469.115H1275.52L1275.07 469.61V471.845H1273.86V469.97L1273.29 469.115H1272.49L1272.03 469.61V476H1270.83V468.035ZM1281.41 468.035H1285.55L1286.33 469.19L1285.6 469.97L1285 469.085H1281.94L1281.47 469.49V470.63L1282.04 471.44H1285.58L1286.6 472.97V474.875L1285.58 476H1280.87L1280.27 475.07L1281.01 474.305L1281.41 474.92H1285.09L1285.4 474.56V473.15L1284.97 472.535H1281.41L1280.27 470.81V469.145L1281.41 468.035ZM1296.33 477.83H1288.53V476.75H1296.33V477.83Z" fill="black"/>
<path d="M479.687 450.5H483.902L484.892 452L484.127 452.81L483.332 451.58H480.137L479.672 452.075V459.05L480.257 459.92H483.422L484.322 459.02L484.922 459.92L483.902 461H479.672L478.472 459.2V451.745L479.687 450.5ZM488.336 452.705H493.046L493.991 454.1V461H492.731V460.235L491.471 461H488.336L487.076 459.125V458.525L489.416 456.095H492.731V453.815H488.336V452.705ZM488.336 458.975L488.921 459.86H492.731V457.235H489.911L488.336 458.855V458.975ZM497.51 453.035H501.65L502.43 454.19L501.695 454.97L501.095 454.085H498.035L497.57 454.49V455.63L498.14 456.44H501.68L502.7 457.97V459.875L501.68 461H496.97L496.37 460.07L497.105 459.305L497.51 459.92H501.185L501.5 459.56V458.15L501.065 457.535H497.51L496.37 455.81V454.145L497.51 453.035ZM505.214 449.765H506.414V453.755L507.614 453.035H510.614L511.859 454.805V461H510.644V454.955L510.074 454.115H506.909L506.414 454.58V461H505.214V449.765ZM513.908 453.035H515.108V453.755L516.308 453.035H516.938L517.628 454.07L519.353 453.035H519.938L521.153 454.82V461H519.938V454.97L519.368 454.115H518.603L518.153 454.61V456.845H516.938V454.97L516.368 454.115H515.573L515.108 454.61V461H513.908V453.035ZM524.388 453.035H528.588L529.833 454.82L527.358 457.37H524.388V459.05L524.973 459.92H528.153L528.993 459.095L529.653 459.92L528.603 461H524.403L523.188 459.2V454.28L524.388 453.035ZM524.388 454.595V456.29H526.908L528.423 454.7L528.033 454.115H524.868L524.388 454.595ZM532.122 453.035H532.782L534.207 453.89L535.032 453.035H538.122L538.902 454.175L538.002 454.79L537.552 454.115H535.497L534.837 454.82V459.92H536.952V461H532.122V459.92H533.637V454.97L533.052 454.115H532.122V453.035ZM542.376 453.035H546.576L547.821 454.82L545.346 457.37H542.376V459.05L542.961 459.92H546.141L546.981 459.095L547.641 459.92L546.591 461H542.391L541.176 459.2V454.28L542.376 453.035ZM542.376 454.595V456.29H544.896L546.411 454.7L546.021 454.115H542.856L542.376 454.595ZM559.329 450.5H565.104L565.809 451.52V452.9L563.964 454.85H564.564L565.959 456.905V460.265L564.759 461H559.329V450.5ZM560.529 451.58V454.85H562.449L564.609 452.615V451.58H560.529ZM560.529 455.945V459.92H564.759V457.025L563.994 455.945H560.529ZM568.158 449.78H570.408L571.623 450.5V459.065L572.193 459.92H574.803L574.788 461H571.623L570.408 459.215V450.86H568.158V449.78ZM578.277 452.705H582.987L583.932 454.1V461H582.672V460.235L581.412 461H578.277L577.017 459.125V458.525L579.357 456.095H582.672V453.815H578.277V452.705ZM578.277 458.975L578.862 459.86H582.672V457.235H579.852L578.277 458.855V458.975ZM586.162 453.035H587.362V453.755L588.577 453.035H591.592L592.807 454.805V461H591.592V454.955L591.022 454.115H587.827L587.362 454.595V461H586.162V453.035ZM596.371 453.035H600.586L601.651 454.625L600.886 455.42L600.001 454.115H596.836L596.371 454.595V459.05L596.956 459.92H600.121L601.006 459.005L601.621 459.92L600.586 461H596.386L595.171 459.2V454.28L596.371 453.035ZM604.15 449.765H605.35V453.755L606.55 453.035H609.55L610.795 454.805V461H609.58V454.955L609.01 454.115H605.845L605.35 454.58V461H604.15V449.765ZM614.329 453.035H618.529L619.774 454.82L617.299 457.37H614.329V459.05L614.914 459.92H618.094L618.934 459.095L619.594 459.92L618.544 461H614.344L613.129 459.2V454.28L614.329 453.035ZM614.329 454.595V456.29H616.849L618.364 454.7L617.974 454.115H614.809L614.329 454.595ZM534.642 469.5H538.812V480H537.612V475.2H533.412V480H532.212V472.005L534.642 469.5ZM533.412 472.29V474.12H537.612V470.58H535.077L533.412 472.29ZM541.176 468.78H543.426L544.641 469.5V478.065L545.211 478.92H547.821L547.806 480H544.641L543.426 478.215V469.86H541.176V468.78ZM550.785 471.75H552.9L554.1 473.55V478.92H556.815V480H550.185V478.92H552.9V473.7L552.33 472.845H550.785V471.75ZM552.75 469.785H554.25V468.285H552.75V469.785ZM559.179 472.035H560.379V472.755L561.594 472.035H564.609L565.824 473.805V480H564.609V473.955L564.039 473.115H560.844L560.379 473.595V480H559.179V472.035Z" fill="black"/>
<path d="M514.292 679.5H515.492V688.02L516.107 688.905H519.737V687.825H520.952V690H515.537L514.292 688.14V679.5ZM523.901 681.75H526.016L527.216 683.55V688.92H529.931V690H523.301V688.92H526.016V683.7L525.446 682.845H523.901V681.75ZM525.866 679.785H527.366V678.285H525.866V679.785ZM532.296 682.035H533.496V682.755L534.711 682.035H537.726L538.941 683.805V690H537.726V683.955L537.156 683.115H533.961L533.496 683.595V690H532.296V682.035ZM541.29 678.78H542.49V684.84L545.655 681.57H547.155L544.89 683.895L547.935 688.395V690H546.72V688.53L544.11 684.705L542.49 686.37V690H541.29V678.78ZM551.469 682.035H555.669L556.914 683.82L554.439 686.37H551.469V688.05L552.054 688.92H555.234L556.074 688.095L556.734 688.92L555.684 690H551.484L550.269 688.2V683.28L551.469 682.035ZM551.469 683.595V685.29H553.989L555.504 683.7L555.114 683.115H551.949L551.469 683.595ZM564.723 678.765H565.938V690H564.723V689.28L563.523 690H560.538L559.293 688.185V683.295L560.508 682.02H563.508L564.723 682.74V678.765ZM560.508 688.035L561.078 688.905H564.288L564.723 688.455V683.97L564.153 683.115H560.973L560.508 683.595V688.035ZM568.272 679.5H574.902V680.595H572.187V688.905H574.902V690H568.272V688.905H570.987V680.595H568.272V679.5ZM577.266 682.035H578.466V682.755L579.681 682.035H582.696L583.911 683.805V690H582.696V683.955L582.126 683.115H578.931L578.466 683.595V690H577.266V682.035Z" fill="black"/>
<path d="M1199.31 679.5H1205.94V680.595H1203.22V688.905H1205.94V690H1199.31V688.905H1202.02V680.595H1199.31V679.5ZM1208.3 682.035H1209.5V682.755L1210.72 682.035H1213.73L1214.95 683.805V690H1213.73V683.955L1213.16 683.115H1209.97L1209.5 683.595V690H1208.3V682.035ZM1218.59 682.035H1222.73L1223.51 683.19L1222.77 683.97L1222.17 683.085H1219.11L1218.65 683.49V684.63L1219.22 685.44H1222.76L1223.78 686.97V688.875L1222.76 690H1218.05L1217.45 689.07L1218.18 688.305L1218.59 688.92H1222.26L1222.58 688.56V687.15L1222.14 686.535H1218.59L1217.45 684.81V683.145L1218.59 682.035ZM1227.79 678.78H1228.99V682.02H1231.42V683.115H1228.99V688.05L1229.57 688.905H1231.09L1231.99 688.005L1232.6 688.905L1231.58 690H1228.99L1227.79 688.23V683.115H1226.6V682.02H1227.79V678.78ZM1236.39 681.705H1241.1L1242.05 683.1V690H1240.79V689.235L1239.53 690H1236.39L1235.13 688.125V687.525L1237.47 685.095H1240.79V682.815H1236.39V681.705ZM1236.39 687.975L1236.98 688.86H1240.79V686.235H1237.97L1236.39 687.855V687.975ZM1246.45 689.115L1245.6 689.94V691.14L1246.2 692.04H1248.43L1249.69 690.765V689.565L1249.41 689.115H1246.45ZM1245.6 683.505V685.815H1248.48L1249.69 685.065V683.625L1249.12 682.8H1246.24L1245.6 683.505ZM1248.51 686.925H1246.2L1245.64 687.495L1245.96 688.005H1249.99L1250.91 689.43V691.02L1248.88 693.135H1245.64L1244.38 691.26V689.685L1245.24 688.83L1244.26 687.375L1245.04 686.595L1244.38 686.19V683.175L1245.79 681.705H1248.49L1249.69 682.44V681.705H1250.91V685.455L1248.51 686.925ZM1253.2 682.035H1253.86L1255.28 682.89L1256.11 682.035H1259.2L1259.98 683.175L1259.08 683.79L1258.63 683.115H1256.57L1255.91 683.82V688.92H1258.03V690H1253.2V688.92H1254.71V683.97L1254.13 683.115H1253.2V682.035ZM1263.38 681.705H1268.09L1269.03 683.1V690H1267.77V689.235L1266.51 690H1263.38L1262.12 688.125V687.525L1264.46 685.095H1267.77V682.815H1263.38V681.705ZM1263.38 687.975L1263.96 688.86H1267.77V686.235H1264.95L1263.38 687.855V687.975ZM1270.96 682.035H1272.16V682.755L1273.36 682.035H1273.99L1274.68 683.07L1276.41 682.035H1276.99L1278.21 683.82V690H1276.99V683.97L1276.42 683.115H1275.66L1275.21 683.61V685.845H1273.99V683.97L1273.42 683.115H1272.63L1272.16 683.61V690H1270.96V682.035Z" fill="black"/>
<path d="M857.507 679.5H861.737L862.532 680.73L861.767 681.48L861.152 680.58H857.957L857.507 681.06V682.995L858.107 683.865H861.872L862.937 685.455V688.905L861.887 690H856.967L856.307 689.07L857.057 688.275L857.522 688.92H861.377L861.737 688.605V685.59L861.287 684.945H857.507L856.307 683.16V680.745L857.507 679.5ZM870.716 682.035H871.931V690H870.746V689.265L869.516 690H866.516L865.301 688.2V682.035H866.501V688.05L867.086 688.905H870.281L870.716 688.44V682.035ZM874.311 678.78H875.511V682.755L876.711 682.02H879.741L880.971 683.85V688.74L879.741 690H876.741L875.511 689.28V690H874.311V678.78ZM875.511 683.61V688.905H879.306L879.756 688.425V683.985L879.171 683.115H875.991L875.511 683.61ZM884.58 682.035H888.72L889.5 683.19L888.765 683.97L888.165 683.085H885.105L884.64 683.49V684.63L885.21 685.44H888.75L889.77 686.97V688.875L888.75 690H884.04L883.44 689.07L884.175 688.305L884.58 688.92H888.255L888.57 688.56V687.15L888.135 686.535H884.58L883.44 684.81V683.145L884.58 682.035ZM893.784 678.78H894.984V682.02H897.414V683.115H894.984V688.05L895.569 688.905H897.084L897.984 688.005L898.599 688.905L897.579 690H894.984L893.784 688.23V683.115H892.599V682.02H893.784V678.78ZM902.388 681.705H907.098L908.043 683.1V690H906.783V689.235L905.523 690H902.388L901.128 688.125V687.525L903.468 685.095H906.783V682.815H902.388V681.705ZM902.388 687.975L902.973 688.86H906.783V686.235H903.963L902.388 687.855V687.975ZM911.487 682.035H915.702L916.767 683.625L916.002 684.42L915.117 683.115H911.952L911.487 683.595V688.05L912.072 688.92H915.237L916.122 688.005L916.737 688.92L915.702 690H911.502L910.287 688.2V683.28L911.487 682.035ZM919.266 678.78H920.466V684.84L923.631 681.57H925.131L922.866 683.895L925.911 688.395V690H924.696V688.53L922.086 684.705L920.466 686.37V690H919.266V678.78Z" fill="black"/>
<path d="M1173.34 44.5H1179.11L1179.82 45.52V46.9L1177.97 48.85H1178.57L1179.97 50.905V54.265L1178.77 55H1173.34V44.5ZM1174.54 45.58V48.85H1176.46L1178.62 46.615V45.58H1174.54ZM1174.54 49.945V53.92H1178.77V51.025L1178 49.945H1174.54ZM1182.1 47.035H1182.76L1184.19 47.89L1185.01 47.035H1188.1L1188.88 48.175L1187.98 48.79L1187.53 48.115H1185.48L1184.82 48.82V53.92H1186.93V55H1182.1V53.92H1183.62V48.97L1183.03 48.115H1182.1V47.035ZM1192.28 46.705H1196.99L1197.94 48.1V55H1196.68V54.235L1195.42 55H1192.28L1191.02 53.125V52.525L1193.36 50.095H1196.68V47.815H1192.28V46.705ZM1192.28 52.975L1192.87 53.86H1196.68V51.235H1193.86L1192.28 52.855V52.975ZM1200.77 46.75H1202.88L1204.08 48.55V53.92H1206.8V55H1200.17V53.92H1202.88V48.7L1202.31 47.845H1200.77V46.75ZM1202.73 44.785H1204.23V43.285H1202.73V44.785ZM1209.16 47.035H1210.36V47.755L1211.58 47.035H1214.59L1215.81 48.805V55H1214.59V48.955L1214.02 48.115H1210.83L1210.36 48.595V55H1209.16V47.035Z" fill="black"/>
<path d="M1243.87 96.5H1245.07V105.215L1245.49 105.92H1245.87L1246.89 104.855V100.85H1248.1V104.405L1249.14 105.92H1249.5L1249.9 105.47V96.5H1251.12V105.755L1249.9 107H1248.55L1247.62 105.62L1246.32 107H1245.07L1243.87 105.2V96.5ZM1254.39 99.035H1258.64L1259.84 100.835V105.755L1258.64 107H1254.41L1253.19 105.2V100.28L1254.39 99.035ZM1254.38 105.05L1254.98 105.92H1258.16L1258.61 105.44V100.97L1258.04 100.115H1254.84L1254.38 100.61V105.05ZM1262.1 99.035H1262.76L1264.18 99.89L1265.01 99.035H1268.1L1268.88 100.175L1267.98 100.79L1267.53 100.115H1265.47L1264.81 100.82V105.92H1266.93V107H1262.1V105.92H1263.61V100.97L1263.03 100.115H1262.1V99.035ZM1271.15 95.78H1273.4L1274.62 96.5V105.065L1275.19 105.92H1277.8L1277.78 107H1274.62L1273.4 105.215V96.86H1271.15V95.78ZM1285.61 95.765H1286.82V107H1285.61V106.28L1284.41 107H1281.42L1280.18 105.185V100.295L1281.39 99.02H1284.39L1285.61 99.74V95.765ZM1281.39 105.035L1281.96 105.905H1285.17L1285.61 105.455V100.97L1285.04 100.115H1281.86L1281.39 100.595V105.035Z" fill="black"/>
<path d="M1320.34 44.5H1324.96L1326.98 47.515V53.755L1325.78 55H1320.34V44.5ZM1321.54 45.58V53.92H1325.29L1325.77 53.425V47.665L1324.37 45.58H1321.54ZM1334.59 47.035H1335.81V55H1334.62V54.265L1333.39 55H1330.39L1329.18 53.2V47.035H1330.38V53.05L1330.96 53.905H1334.16L1334.59 53.44V47.035ZM1337.87 47.035H1339.07V47.755L1340.27 47.035H1340.9L1341.59 48.07L1343.32 47.035H1343.9L1345.12 48.82V55H1343.9V48.97L1343.33 48.115H1342.57L1342.12 48.61V50.845H1340.9V48.97L1340.33 48.115H1339.54L1339.07 48.61V55H1337.87V47.035ZM1349.57 47.035H1352.61L1353.8 48.835V53.755L1352.6 55H1349.58L1348.37 54.28V58.24H1347.17V47.035H1348.37V47.77L1349.57 47.035ZM1348.37 53.05L1348.97 53.92H1352.13L1352.58 53.455V48.985L1352.01 48.13H1348.83L1348.37 48.595V53.05Z" fill="black"/>
<path d="M1130 88.5576L1183 62.9998" stroke="black" stroke-linecap="round"/>
<path d="M1203 63.0001L1266 89.0001" stroke="black" stroke-linecap="round"/>
<path d="M1227 55.0001L1312 55.0001" stroke="black" stroke-linecap="round"/>
<path d="M1130 102L1227 102" stroke="black" stroke-linecap="round"/>
<path d="M1301 97L1337 63" stroke="black" stroke-linecap="round"/>
<path d="M1143 92L1319 63" stroke="black" stroke-linecap="round"/>
<path d="M207.77 554.854L208.125 555.208L208.478 554.852L302.03 460.217V646.5H112.622V460.202L207.77 554.854Z" stroke="black"/>
<path d="M206.588 330.887L206.99 330.589L206.584 330.04L206.183 330.593L206.588 330.887ZM206.588 330.887L206.186 331.184L301.398 460.018L301.8 459.72L302.202 459.423L206.99 330.589L206.588 330.887ZM112.624 460.61L113.029 460.904L206.993 331.18L206.588 330.887L206.183 330.593L112.219 460.317L112.624 460.61Z" fill="black"/>
<path d="M549.892 554.413L550.248 554.766L550.6 554.41L644.152 459.775V646.058H454.745V459.76L549.892 554.413Z" stroke="black"/>
<path d="M548.711 330.445L549.113 330.148L548.706 329.598L548.306 330.151L548.711 330.445ZM548.711 330.445L548.308 330.742L643.52 459.576L643.923 459.279L644.325 458.981L549.113 330.148L548.711 330.445ZM454.746 460.168L455.151 460.462L549.115 330.738L548.711 330.445L548.306 330.151L454.341 459.875L454.746 460.168Z" fill="black"/>
<path d="M891.892 554.413L892.248 554.766L892.6 554.41L986.152 459.775V646.058H796.745V459.76L891.892 554.413Z" stroke="black"/>
<path d="M890.711 330.445L891.113 330.148L890.706 329.598L890.306 330.151L890.711 330.445ZM890.711 330.445L890.308 330.742L985.52 459.576L985.923 459.279L986.325 458.981L891.113 330.148L890.711 330.445ZM796.746 460.168L797.151 460.462L891.115 330.738L890.711 330.445L890.306 330.151L796.341 459.875L796.746 460.168Z" fill="black"/>
<path d="M1233.89 554.413L1234.25 554.766L1234.6 554.41L1328.15 459.775V646.058H1138.74V459.76L1233.89 554.413Z" stroke="black"/>
<path d="M1232.71 330.445L1233.11 330.148L1232.71 329.598L1232.31 330.151L1232.71 330.445ZM1232.71 330.445L1232.31 330.742L1327.52 459.576L1327.92 459.279L1328.32 458.981L1233.11 330.148L1232.71 330.445ZM1138.75 460.168L1139.15 460.462L1233.12 330.738L1232.71 330.445L1232.31 330.151L1138.34 459.875L1138.75 460.168Z" fill="black"/>
<path d="M499.096 232.512H502.936V251.088L496.264 258H492.76L489.88 253.632L485.608 258H482.2L475.912 248.688V232.512H479.752V248.208L483.976 254.496H484.216L487.48 251.088V232.512H491.368V249.696L494.632 254.496H494.776L499.096 250.08V232.512ZM507.573 222.048H511.413V234.816L515.253 232.512H524.853L528.837 238.176V258H524.949V238.656L523.125 235.968H512.997L511.413 237.456V258H507.573V222.048ZM540.147 232.512H553.587L557.571 238.224L549.651 246.384H540.147V251.76L542.019 254.544H552.195L554.883 251.904L556.995 254.544L553.635 258H540.195L536.307 252.24V236.496L540.147 232.512ZM540.147 237.504V242.928H548.211L553.059 237.84L551.811 235.968H541.683L540.147 237.504ZM564.896 232.512H567.008L571.568 235.248L574.208 232.512H584.096L586.592 236.16L583.712 238.128L582.272 235.968H575.696L573.584 238.224V254.544H580.352V258H564.896V254.544H569.744V238.704L567.872 235.968H564.896V232.512ZM597.709 232.512H611.149L615.133 238.224L607.213 246.384H597.709V251.76L599.581 254.544H609.757L612.445 251.904L614.557 254.544L611.197 258H597.757L593.869 252.24V236.496L597.709 232.512ZM597.709 237.504V242.928H605.773L610.621 237.84L609.373 235.968H599.245L597.709 237.504ZM656.28 222.096H660.12V232.464H667.896V235.968H660.12V251.76L661.992 254.496H666.84L669.72 251.616L671.688 254.496L668.424 258H660.12L656.28 252.336V235.968H652.488V232.464H656.28V222.096ZM684.149 232.512H697.733L701.573 238.272V254.016L697.733 258H684.197L680.309 252.24V236.496L684.149 232.512ZM684.101 251.76L686.021 254.544H696.197L697.637 253.008V238.704L695.813 235.968H685.589L684.101 237.552V251.76ZM746.031 224.4H756.687L759.039 227.712L756.591 230.208L755.007 227.856H747.615L745.503 230.016V238.32H755.007V241.776H745.503V258H741.663V241.776H737.823V238.32H741.663V228.912L746.031 224.4ZM768.525 231.6H775.293L779.133 237.36V254.544H787.821V258H766.605V254.544H775.293V237.84L773.469 235.104H768.525V231.6ZM774.812 225.312H779.613V220.512H774.812V225.312ZM795.386 232.512H799.226V234.816L803.114 232.512H812.762L816.65 238.176V258H812.762V238.656L810.938 235.968H800.714L799.226 237.504V258H795.386V232.512ZM841.591 222.048H845.479V258H841.591V255.696L837.751 258H828.199L824.215 252.192V236.544L828.103 232.464H837.703L841.591 234.768V222.048ZM828.103 251.712L829.927 254.496H840.199L841.591 253.056V238.704L839.767 235.968H829.591L828.103 237.504V251.712ZM880.77 232.512H884.61V234.816L888.45 232.512H890.466L892.674 235.824L898.194 232.512H900.066L903.954 238.224V258H900.066V238.704L898.242 235.968H895.794L894.354 237.552V244.704H890.466V238.704L888.642 235.968H886.098L884.61 237.552V258H880.77V232.512ZM914.303 232.512H927.743L931.727 238.224L923.807 246.384H914.303V251.76L916.175 254.544H926.351L929.039 251.904L931.151 254.544L927.791 258H914.351L910.463 252.24V236.496L914.303 232.512ZM914.303 237.504V242.928H922.367L927.215 237.84L925.967 235.968H915.839L914.303 237.504ZM943.132 224.4H956.572L962.428 233.184L951.82 244.272V248.688H947.884V243.36L958.06 232.848L954.652 227.856H944.572L939.244 233.328L937.372 230.352L943.132 224.4ZM947.404 259.008V254.592H952.396V259.008H947.404Z" fill="black"/>
</svg>
