<svg width="28" height="10" viewBox="0 0 28 10" fill="none" xmlns="http://www.w3.org/2000/svg">
<path d="M1.17588 0.971948H5.31588V1.83595H1.53588L0.959885 2.43595V4.45195H3.74389V5.32795H0.959885V9.37195H-0.000115216V2.17195L1.17588 0.971948ZM7.5552 2.77195H9.2472L10.2072 4.21195V8.50795H12.3792V9.37195H7.0752V8.50795H9.2472V4.33195L8.7912 3.64795H7.5552V2.77195ZM9.1272 1.19995H10.3272V-5.19753e-05H9.1272V1.19995ZM14.2585 0.395948H16.0585L17.0305 0.971948V7.82395L17.4865 8.50795H19.5745L19.5625 9.37195H17.0305L16.0585 7.94395V1.25995H14.2585V0.395948ZM21.2258 2.99995H22.1858V3.57595L23.1458 2.99995H23.6498L24.2018 3.82795L25.5818 2.99995H26.0498L27.0218 4.42795V9.37195H26.0498V4.54795L25.5938 3.86395H24.9818L24.6218 4.25995V6.04795H23.6498V4.54795L23.1938 3.86395H22.5578L22.1858 4.25995V9.37195H21.2258V2.99995Z" fill="black"></path>
</svg>