<svg width="88" height="66" viewBox="0 0 88 66" fill="none" xmlns="http://www.w3.org/2000/svg">
<path d="M83.4039 0C82.2804 0 81.3459 0.435893 80.5996 1.2195C79.8543 2.00311 79.4581 2.98415 79.438 4.16372C79.4312 4.5486 79.4718 4.92071 79.5801 5.2712C79.6419 5.47418 79.719 5.77919 79.9694 6.23227H79.9641L57.7427 29.5609L15.4439 51.7654C15.1328 51.2657 14.7662 50.796 14.3473 50.3556C12.7664 48.6958 10.7867 47.7713 8.40547 47.7713C6.02269 47.7713 4.04348 48.6958 2.46253 50.3556C0.881591 52.0149 0.0449008 54.094 0.00158735 56.594C-0.0132026 57.4081 0.0744808 58.1995 0.301613 58.9393C0.475923 59.5077 0.703055 60.4466 1.75262 61.9856C3.05466 63.8966 4.95887 65.0152 7.264 65.3363C7.68076 65.3945 8.08907 65.4228 8.48681 65.4228C10.3836 65.4228 12.0739 64.7756 13.5397 63.5789C15.3071 62.1359 16.3672 60.2032 16.7312 57.7913C16.7312 57.7913 16.8014 57.376 16.8083 56.594C16.784 55.6124 16.6435 54.6957 16.3862 53.8439H16.381L58.88 31.5329C58.9856 31.4775 59.0817 31.4048 59.1652 31.3183L81.5123 7.85661H81.5192C81.9233 8.07678 82.3765 8.22152 82.8656 8.28973C83.0632 8.31802 83.2554 8.33077 83.4435 8.33077C84.3383 8.33077 85.1364 8.0252 85.8284 7.4601C86.6614 6.77908 87.1632 5.86737 87.3348 4.72883C87.3348 4.72883 87.3676 4.53307 87.3702 4.16372C87.3417 2.98415 86.955 2.00311 86.2087 1.2195C85.4634 0.435893 84.529 0 83.4039 0Z" fill="black"></path>
</svg>